<?xml version="1.0" encoding="UTF-8"?>
<svg xmlns="http://www.w3.org/2000/svg" width="1680" height="1165" viewBox="0 0 1680 1165" fill="none">
  <g clip-path="url(#clip0_1155_17632)">
    <rect width="1680" height="1165" fill="black"></rect>
    <rect width="1680" height="1165" fill="url(#paint0_linear_1155_17632)" fill-opacity="0.4"></rect>
    <rect width="1680" height="1165" fill="url(#paint1_linear_1155_17632)"></rect>
    <path fill-rule="evenodd" clip-rule="evenodd" d="M879.562 326.352L949.454 286L949.929 286.823L880.512 326.901L940.317 361.43L1010.23 321.065L1010.71 321.888L941.267 361.979L1001.04 396.493L1070.96 356.128L1071.44 356.951L1002 397.042L1061.81 431.578L1131.7 391.23L1132.17 392.053L1062.76 432.127L1122.56 466.655L1192.47 426.295L1192.95 427.118L1123.51 467.204L1183.29 501.719L1253.2 461.358L1253.68 462.181L1184.24 502.268L1244.04 536.795L1313.97 496.423L1314.45 497.246L1245 537.344L1304.81 571.881L1374.71 531.525L1375.19 532.348L1305.76 572.43L1365.54 606.944L1435.44 566.588L1435.92 567.411L1366.49 607.493L1426.3 642.021L1496.22 601.653L1496.69 602.476L1427.25 642.57L1487.03 677.089L1556.96 636.717L1557.43 637.541L1487.98 677.638L1547.76 712.154L1617.69 671.78L1618.17 672.604L1548.71 712.703L1608.54 747.248L1678.46 706.883L1678.93 707.706L1609.5 747.797L1669.28 782.313L1739.19 741.947L1739.67 742.77L1670.23 782.862L1730.01 817.379L1799.93 777.01L1800.41 777.834L1730.96 817.928L1790.76 852.455L1860.7 812.076L1861.17 812.899L1791.71 853.004L1851.53 887.54L1921.44 847.177L1921.91 848L1852.48 888.089L1912.28 922.616L1982.21 882.24L1982.69 883.064L1913.23 923.165L1973.01 957.68L2042.94 917.305L2043.42 918.128L1973.96 958.229L2033.75 992.748L2103.68 952.37L2104.15 953.194L2034.7 993.297L2094.76 1027.97L2094.28 1028.8L2033.75 993.845L1964.59 1033.77L2024.63 1068.44L2024.15 1069.26L1963.64 1034.32L1894.44 1074.28L1954.47 1108.94L1953.99 1109.76L1893.48 1074.83L1824.29 1114.78L1884.33 1149.44L1883.86 1150.27L1823.34 1115.33L1754.14 1155.29L1814.17 1189.94L1813.69 1190.77L1753.19 1155.83L1684 1195.78L1744.04 1230.45L1743.57 1231.27L1683.05 1196.33L1613.84 1236.29L1673.87 1270.95L1673.4 1271.77L1612.89 1236.84L1543.7 1276.78L1603.75 1311.45L1603.27 1312.27L1542.75 1277.33L1473.55 1317.29L1533.58 1351.95L1533.11 1352.78L1472.6 1317.84L1403.4 1357.79L1463.45 1392.46L1462.98 1393.28L1402.45 1358.34L1333.25 1398.3L1393.28 1432.96L1392.81 1433.78L1332.3 1398.84L1263.11 1438.79L1323.16 1473.46L1322.69 1474.28L1262.16 1439.34L1192.98 1479.28L1252.99 1513.93L1252.51 1514.75L1192.03 1479.83L1122.85 1519.78L1182.86 1554.43L1182.39 1555.25L1121.89 1520.32L1052.69 1560.28L1112.7 1594.93L1112.23 1595.75L1051.74 1560.83L982.547 1600.78L1042.57 1635.43L1042.09 1636.26L981.596 1601.33L912.391 1641.29L972.403 1675.94L971.928 1676.76L911.44 1641.84L842.253 1681.78L902.278 1716.44L901.802 1717.26L841.302 1682.33L772.112 1722.28L832.143 1756.94L831.668 1757.76L771.161 1722.83L701.957 1762.79L761.982 1797.44L761.507 1798.26L701.006 1763.33L631.083 1803.71L630.608 1802.88L700.055 1762.79L640.238 1728.25L570.348 1768.6L569.872 1767.78L639.288 1727.7L579.489 1693.18L509.581 1733.54L509.106 1732.71L578.538 1692.63L518.753 1658.11L448.843 1698.47L448.368 1697.65L517.802 1657.56L458.016 1623.05L388.103 1663.41L387.628 1662.59L457.065 1622.5L397.233 1587.95L327.337 1628.31L326.862 1627.48L396.283 1587.4L336.498 1552.89L266.599 1593.24L266.124 1592.42L335.547 1552.34L275.764 1517.82L205.863 1558.18L205.388 1557.36L274.813 1517.28L215.011 1482.75L145.095 1523.12L144.619 1522.29L214.06 1482.2L154.247 1447.67L84.3608 1488.02L83.8854 1487.19L153.296 1447.12L93.5095 1412.6L23.6211 1452.95L23.1458 1452.13L92.5587 1412.05L32.754 1377.52L-37.1551 1417.89L-37.6305 1417.06L31.8033 1376.97L-27.9757 1342.46L-97.8832 1382.82L-98.3586 1382L-28.9265 1341.91L-88.7628 1307.37L-158.659 1347.72L-159.135 1346.9L-89.7135 1306.82L-149.498 1272.3L-219.393 1312.66L-219.869 1311.83L-150.449 1271.75L-210.23 1237.24L-280.125 1277.59L-280.601 1276.77L-211.18 1236.69L-270.984 1202.16L-340.898 1242.53L-341.373 1241.7L-271.934 1201.61L-331.752 1167.08L-401.636 1207.43L-402.111 1206.6L-332.703 1166.53L-392.482 1132.02L-462.364 1172.36L-462.839 1171.54L-393.432 1131.47L-453.238 1096.94L-523.142 1137.3L-523.617 1136.47L-454.189 1096.39L-514.224 1061.73L-513.749 1060.91L-453.238 1095.84L-384.032 1055.89L-444.063 1021.23L-443.587 1020.4L-383.082 1055.34L-313.889 1015.39L-373.928 980.725L-373.453 979.902L-312.939 1014.84L-243.733 974.884L-303.765 940.223L-303.29 939.4L-242.782 974.335L-173.593 934.389L-233.638 899.721L-233.163 898.898L-172.642 933.84L-103.43 893.881L-163.467 859.218L-162.992 858.394L-102.48 893.332L-33.2905 853.385L-93.3426 818.715L-92.8672 817.891L-32.3397 852.836L36.8657 812.881L-23.1793 778.213L-22.7039 777.39L37.8164 812.332L106.978 772.402L46.9551 737.748L47.4305 736.925L107.929 771.853L177.133 731.898L117.116 697.246L117.592 696.423L178.084 731.349L247.274 691.402L187.245 656.745L187.72 655.922L248.225 690.853L317.435 650.895L257.416 616.242L257.891 615.419L318.386 650.346L387.575 610.4L327.539 575.738L328.014 574.915L388.526 609.851L457.733 569.894L397.706 535.237L398.181 534.413L458.684 569.345L527.876 529.397L467.837 494.734L468.312 493.91L528.827 528.848L598.031 488.893L537.998 454.232L538.473 453.409L598.982 488.344L668.172 448.398L608.127 413.731L608.602 412.908L669.122 447.849L738.334 407.889L678.298 373.227L678.773 372.403L739.285 407.34L808.474 367.394L748.422 332.724L748.898 331.901L809.425 366.846L878.611 326.901L818.549 292.223L819.025 291.399L879.562 326.352ZM879.562 327.45L810.375 367.394L870.181 401.923L939.366 361.979L879.562 327.45ZM940.317 362.528L871.132 402.472L930.911 436.985L1000.09 397.042L940.317 362.528ZM1001.04 397.591L931.861 437.534L991.679 472.069L1060.86 432.127L1001.04 397.591ZM1061.81 432.676L992.63 472.618L1052.43 507.145L1121.61 467.204L1061.81 432.676ZM1122.56 467.753L1053.38 507.694L1113.16 542.208L1182.34 502.268L1122.56 467.753ZM1183.29 502.817L1114.12 542.757L1173.92 577.283L1243.09 537.344L1183.29 502.817ZM1244.04 537.893L1174.87 577.832L1234.69 612.368L1303.86 572.43L1244.04 537.893ZM1304.81 572.979L1235.64 612.917L1295.42 647.43L1364.59 607.493L1304.81 572.979ZM1365.54 608.042L1296.37 647.979L1356.17 682.507L1425.34 642.57L1365.54 608.042ZM1426.3 643.119L1357.12 683.056L1416.91 717.573L1486.08 677.638L1426.3 643.119ZM1487.03 678.186L1417.86 718.122L1477.64 752.639L1546.81 712.703L1487.03 678.186ZM1547.76 713.252L1478.6 753.188L1538.43 787.73L1607.59 747.797L1547.76 713.252ZM1608.54 748.345L1539.38 788.279L1599.16 822.795L1668.33 782.862L1608.54 748.345ZM1669.28 783.411L1600.11 823.344L1659.9 857.86L1729.06 817.928L1669.28 783.411ZM1730.01 818.477L1660.85 858.409L1720.65 892.936L1789.81 853.004L1730.01 818.477ZM1790.76 853.553L1721.6 893.485L1781.42 928.019L1850.58 888.089L1790.76 853.553ZM1851.53 888.637L1782.37 928.568L1842.17 963.094L1911.33 923.165L1851.53 888.637ZM1912.28 923.714L1843.12 963.643L1902.9 998.157L1972.06 958.229L1912.28 923.714ZM1973.01 958.778L1903.85 998.706L1963.64 1033.22L2032.8 993.297L1973.01 958.778ZM1962.69 1033.77L1902.9 999.255L1833.7 1039.21L1893.49 1073.73L1962.69 1033.77ZM1892.53 1074.28L1832.75 1039.76L1763.55 1079.71L1823.34 1114.23L1892.53 1074.28ZM1822.39 1114.78L1762.6 1080.26L1693.39 1120.21L1753.19 1154.74L1822.39 1114.78ZM1752.23 1155.29L1692.44 1120.76L1623.25 1160.71L1683.05 1195.23L1752.23 1155.29ZM1682.1 1195.78L1622.3 1161.26L1553.09 1201.22L1612.89 1235.74L1682.1 1195.78ZM1611.94 1236.29L1552.14 1201.76L1482.95 1241.71L1542.75 1276.24L1611.94 1236.29ZM1541.8 1276.78L1482 1242.26L1412.8 1282.22L1472.6 1316.74L1541.8 1276.78ZM1471.64 1317.29L1411.85 1282.76L1342.65 1322.71L1402.45 1357.24L1471.64 1317.29ZM1401.5 1357.79L1341.7 1323.26L1272.49 1363.22L1332.3 1397.75L1401.5 1357.79ZM1331.35 1398.3L1271.54 1363.77L1202.36 1403.71L1262.16 1438.24L1331.35 1398.3ZM1261.21 1438.79L1201.41 1404.26L1132.23 1444.2L1192.03 1478.73L1261.21 1438.79ZM1191.08 1479.28L1131.28 1444.75L1062.09 1484.7L1121.89 1519.23L1191.08 1479.28ZM1120.94 1519.78L1061.14 1485.25L991.931 1525.2L1051.74 1559.73L1120.94 1519.78ZM1050.79 1560.28L990.98 1525.75L921.785 1565.7L981.596 1600.23L1050.79 1560.28ZM980.645 1600.78L920.835 1566.25L851.629 1606.21L911.44 1640.74L980.645 1600.78ZM910.489 1641.29L850.678 1606.75L781.489 1646.7L841.302 1681.23L910.489 1641.29ZM840.352 1681.78L780.538 1647.25L711.346 1687.2L771.161 1721.73L840.352 1681.78ZM770.21 1722.28L710.395 1687.75L641.189 1727.7L701.006 1762.24L770.21 1722.28ZM640.238 1727.15L709.444 1687.2L649.646 1652.67L580.44 1692.63L640.238 1727.15ZM579.489 1692.08L648.696 1652.12L588.91 1617.61L519.704 1657.56L579.489 1692.08ZM518.753 1657.01L587.959 1617.06L528.171 1582.54L458.967 1622.5L518.753 1657.01ZM458.016 1621.95L527.22 1581.99L467.39 1547.45L398.184 1587.4L458.016 1621.95ZM397.233 1586.86L466.439 1546.9L406.655 1512.38L337.449 1552.34L397.233 1586.86ZM336.498 1551.79L405.704 1511.83L345.92 1477.32L276.715 1517.28L336.498 1551.79ZM275.764 1516.73L344.97 1476.77L285.166 1442.24L215.961 1482.2L275.764 1516.73ZM215.011 1481.65L284.215 1441.69L224.403 1407.16L155.197 1447.12L215.011 1481.65ZM154.247 1446.57L223.452 1406.61L163.666 1372.1L94.4602 1412.05L154.247 1446.57ZM93.5095 1411.5L162.715 1371.55L102.911 1337.02L33.7048 1376.97L93.5095 1411.5ZM32.754 1376.43L101.96 1336.47L42.1808 1301.96L-27.025 1341.91L32.754 1376.43ZM-27.9757 1341.36L41.23 1301.41L-18.6053 1266.86L-87.812 1306.82L-27.9757 1341.36ZM-88.7627 1306.27L-19.5561 1266.31L-79.3414 1231.8L-148.547 1271.75L-88.7627 1306.27ZM-149.498 1271.2L-80.2922 1231.25L-140.073 1196.73L-209.279 1236.69L-149.498 1271.2ZM-210.23 1236.14L-141.024 1196.18L-200.827 1161.66L-270.033 1201.61L-210.23 1236.14ZM-270.984 1201.06L-201.778 1161.11L-261.595 1126.57L-330.801 1166.53L-270.984 1201.06ZM-331.752 1165.98L-262.546 1126.02L-322.325 1091.51L-391.531 1131.47L-331.752 1165.98ZM-392.482 1130.92L-323.276 1090.96L-383.082 1056.43L-452.287 1096.39L-392.482 1130.92ZM-382.131 1055.89L-322.325 1090.41L-253.133 1050.47L-312.939 1015.94L-382.131 1055.89ZM-311.988 1015.39L-252.182 1049.92L-182.977 1009.96L-242.782 975.433L-311.988 1015.39ZM-241.831 974.884L-182.026 1009.41L-112.836 969.466L-172.642 934.938L-241.831 974.884ZM-171.691 934.389L-111.885 968.917L-42.675 928.958L-102.48 894.43L-171.691 934.389ZM-101.529 893.881L-41.7242 928.41L27.4659 888.463L-32.3398 853.934L-101.529 893.881ZM-31.389 853.385L28.4167 887.914L97.6212 847.959L37.8164 813.43L-31.389 853.385ZM38.7672 812.881L98.572 847.41L167.734 807.479L107.929 772.951L38.7672 812.881ZM108.879 772.402L168.685 806.93L237.889 766.976L178.084 732.447L108.879 772.402ZM179.035 731.898L238.839 766.427L308.03 726.48L248.225 691.951L179.035 731.898ZM249.175 691.402L308.981 725.931L378.191 685.973L318.386 651.444L249.175 691.402ZM319.336 650.895L379.141 685.424L448.331 645.477L388.526 610.948L319.336 650.895ZM389.476 610.4L449.282 644.928L518.489 604.972L458.684 570.443L389.476 610.4ZM459.634 569.894L519.439 604.423L588.632 564.474L528.827 529.946L459.634 569.894ZM529.777 529.397L589.583 563.926L658.787 523.971L598.982 489.442L529.777 529.397ZM599.932 488.893L659.737 523.422L728.928 483.475L669.122 448.946L599.932 488.893ZM670.073 448.398L729.879 482.926L799.09 442.967L739.285 408.438L670.073 448.398ZM740.236 407.889L800.04 442.418L869.23 402.472L809.425 367.943L740.236 407.889ZM870.181 403.021L800.991 442.967L860.769 477.481L929.96 437.534L870.181 403.021ZM930.911 438.083L861.72 478.03L921.537 512.566L990.728 472.618L930.911 438.083ZM991.679 473.167L922.487 513.115L982.29 547.642L1051.48 507.694L991.679 473.167ZM1052.43 508.243L983.24 548.191L1043.02 582.706L1112.21 542.757L1052.43 508.243ZM1113.16 543.306L1043.97 583.255L1103.77 617.78L1172.97 577.831L1113.16 543.306ZM1173.92 578.38L1104.72 618.329L1164.54 652.867L1233.74 612.917L1173.92 578.38ZM1234.69 613.466L1165.49 653.416L1225.27 687.929L1294.47 647.979L1234.69 613.466ZM1295.42 648.528L1226.22 688.478L1286.02 723.007L1355.22 683.056L1295.42 648.528ZM1356.17 683.605L1286.97 723.555L1346.76 758.073L1415.96 718.122L1356.17 683.605ZM1416.91 718.671L1347.71 758.622L1407.5 793.14L1476.69 753.187L1416.91 718.671ZM1477.65 753.736L1408.45 793.689L1468.28 828.232L1537.48 788.279L1477.65 753.736ZM1538.43 788.828L1469.23 828.78L1529.01 863.297L1598.21 823.344L1538.43 788.828ZM1599.16 823.893L1529.96 863.846L1589.74 898.362L1658.95 858.409L1599.16 823.893ZM1659.9 858.958L1590.69 898.911L1650.5 933.44L1719.7 893.485L1659.9 858.958ZM1720.65 894.034L1651.45 933.989L1711.26 968.522L1780.46 928.568L1720.65 894.034ZM1781.42 929.117L1712.21 969.071L1772.01 1003.6L1841.22 963.643L1781.42 929.117ZM1842.17 964.192L1772.96 1004.15L1832.75 1038.66L1901.95 998.706L1842.17 964.192ZM1831.79 1039.21L1772.01 1004.69L1702.81 1044.64L1762.6 1079.16L1831.79 1039.21ZM1761.65 1079.71L1701.86 1045.19L1632.66 1085.15L1692.44 1119.67L1761.65 1079.71ZM1691.49 1120.21L1631.71 1085.7L1562.52 1125.64L1622.3 1160.16L1691.49 1120.21ZM1621.35 1160.71L1561.57 1126.19L1492.36 1166.15L1552.14 1200.67L1621.35 1160.71ZM1551.19 1201.22L1491.41 1166.7L1422.21 1206.64L1482 1241.16L1551.19 1201.22ZM1481.05 1241.71L1421.26 1207.19L1352.06 1247.15L1411.85 1281.67L1481.05 1241.71ZM1410.9 1282.22L1351.11 1247.7L1281.91 1287.65L1341.7 1322.17L1410.9 1282.22ZM1340.75 1322.71L1280.96 1288.19L1211.75 1328.15L1271.54 1362.67L1340.75 1322.71ZM1270.59 1363.22L1210.8 1328.7L1141.61 1368.64L1201.41 1403.16L1270.59 1363.22ZM1200.45 1403.71L1140.66 1369.19L1071.49 1409.13L1131.28 1443.65L1200.45 1403.71ZM1130.33 1444.2L1070.53 1409.68L1001.34 1449.63L1061.14 1484.15L1130.33 1444.2ZM1060.19 1484.7L1000.39 1450.18L931.187 1490.13L990.98 1524.65L1060.19 1484.7ZM990.03 1525.2L930.236 1490.68L861.04 1530.63L920.835 1565.15L990.03 1525.2ZM919.884 1565.7L860.089 1531.18L790.883 1571.13L850.678 1605.66L919.884 1565.7ZM849.728 1606.21L789.933 1571.68L720.741 1611.63L780.538 1646.15L849.728 1606.21ZM779.587 1646.7L719.791 1612.18L650.597 1652.12L710.395 1686.65L779.587 1646.7ZM649.646 1651.58L718.84 1611.63L659.053 1577.11L589.86 1617.06L649.646 1651.58ZM588.91 1616.51L658.102 1576.56L598.313 1542.04L529.122 1581.99L588.91 1616.51ZM528.171 1581.44L597.362 1541.49L537.533 1506.95L468.341 1546.9L528.171 1581.44ZM467.39 1546.35L536.582 1506.4L476.798 1471.89L407.606 1511.83L467.39 1546.35ZM406.655 1511.29L475.847 1471.34L416.063 1436.82L346.871 1476.77L406.655 1511.29ZM345.92 1476.22L415.113 1436.27L355.307 1401.74L286.116 1441.69L345.92 1476.22ZM285.166 1441.15L354.357 1401.2L294.546 1366.67L225.354 1406.61L285.166 1441.15ZM224.403 1406.06L293.596 1366.12L233.809 1331.6L164.617 1371.55L224.403 1406.06ZM163.666 1371L232.858 1331.05L173.054 1296.52L103.861 1336.47L163.666 1371ZM102.911 1335.92L172.103 1295.97L112.324 1261.46L43.1316 1301.41L102.911 1335.92ZM42.1808 1300.86L111.373 1260.91L51.5386 1226.37L-17.6546 1266.31L42.1808 1300.86ZM-18.6053 1265.76L50.5879 1225.82L-9.19836 1191.3L-78.3907 1231.25L-18.6053 1265.76ZM-79.3415 1230.7L-10.1491 1190.75L-69.9301 1156.24L-139.122 1196.18L-79.3415 1230.7ZM-140.073 1195.64L-70.8808 1155.69L-130.684 1121.16L-199.876 1161.11L-140.073 1195.64ZM-200.827 1160.56L-131.635 1120.61L-191.452 1086.08L-260.645 1126.02L-200.827 1160.56ZM-261.595 1125.48L-192.403 1085.53L-252.182 1051.01L-321.374 1090.96L-261.595 1125.48ZM-251.231 1050.47L-191.452 1084.98L-122.248 1045.02L-182.026 1010.51L-251.231 1050.47ZM-181.076 1009.96L-121.298 1044.48L-52.1064 1004.53L-111.885 970.015L-181.076 1009.96ZM-110.935 969.466L-51.1557 1003.98L18.0538 964.021L-41.7242 929.507L-110.935 969.466ZM-40.7735 928.958L19.0046 963.472L88.1957 923.525L28.4167 889.012L-40.7735 928.958ZM29.3674 888.463L89.1464 922.976L158.35 883.021L98.572 848.508L29.3674 888.463ZM99.5227 847.959L159.301 882.472L228.464 842.541L168.685 808.028L99.5227 847.959ZM169.636 807.479L229.415 841.992L298.617 802.038L238.839 767.525L169.636 807.479ZM239.79 766.976L299.568 801.489L368.76 761.541L308.981 727.028L239.79 766.976ZM309.932 726.48L369.711 760.993L438.919 721.035L379.141 686.522L309.932 726.48ZM380.092 685.973L439.87 720.486L509.061 680.539L449.282 646.026L380.092 685.973ZM450.233 645.477L510.012 679.99L579.217 640.034L519.439 605.521L450.233 645.477ZM520.39 604.972L580.168 639.485L649.362 599.536L589.583 565.023L520.39 604.972ZM590.534 564.474L650.313 598.987L719.516 559.033L659.737 524.52L590.534 564.474ZM660.688 523.971L720.466 558.485L789.658 518.537L729.879 484.024L660.688 523.971ZM730.83 483.475L790.609 517.988L859.819 478.03L800.04 443.516L730.83 483.475ZM860.769 478.579L791.559 518.537L851.377 553.072L920.586 513.115L860.769 478.579ZM921.537 513.663L852.328 553.621L912.131 588.148L981.339 548.191L921.537 513.663ZM982.29 548.74L913.082 588.697L972.863 623.211L1042.07 583.255L982.29 548.74ZM1043.02 583.803L973.813 623.76L1033.61 658.285L1102.82 618.329L1043.02 583.803ZM1103.77 618.878L1034.56 658.834L1094.38 693.371L1163.59 653.416L1103.77 618.878ZM1164.54 653.965L1095.34 693.92L1155.11 728.433L1224.32 688.478L1164.54 653.965ZM1225.27 689.027L1156.07 728.982L1215.87 763.51L1285.07 723.555L1225.27 689.027ZM1286.02 724.104L1216.82 764.059L1276.61 798.576L1345.81 758.622L1286.02 724.104ZM1346.76 759.171L1277.56 799.125L1337.35 833.643L1406.55 793.689L1346.76 759.171ZM1407.5 794.238L1338.3 834.192L1398.12 868.733L1467.33 828.781L1407.5 794.238ZM1468.28 829.329L1399.08 869.282L1458.86 903.798L1528.06 863.846L1468.28 829.329ZM1529.01 864.395L1459.81 904.347L1519.59 938.863L1588.79 898.911L1529.01 864.395ZM1589.74 899.46L1520.54 939.412L1580.35 973.941L1649.55 933.989L1589.74 899.46ZM1650.5 934.538L1581.3 974.49L1641.11 1009.02L1710.31 969.071L1650.5 934.538ZM1711.26 969.62L1642.06 1009.57L1701.86 1044.1L1771.06 1004.15L1711.26 969.62ZM1700.91 1044.64L1641.11 1010.12L1571.91 1050.07L1631.71 1084.6L1700.91 1044.64ZM1630.76 1085.15L1570.96 1050.62L1501.77 1090.57L1561.57 1125.09L1630.76 1085.15ZM1560.62 1125.64L1500.82 1091.12L1431.61 1131.08L1491.41 1165.6L1560.62 1125.64ZM1490.46 1166.15L1430.66 1131.62L1361.47 1171.57L1421.26 1206.1L1490.46 1166.15ZM1420.31 1206.64L1360.52 1172.12L1291.31 1212.08L1351.11 1246.6L1420.31 1206.64ZM1350.16 1247.15L1290.36 1212.63L1221.17 1252.58L1280.96 1287.1L1350.16 1247.15ZM1280.01 1287.65L1220.22 1253.12L1151.01 1293.08L1210.8 1327.6L1280.01 1287.65ZM1209.85 1328.15L1150.06 1293.63L1080.87 1333.57L1140.66 1368.1L1209.85 1328.15ZM1139.71 1368.64L1079.92 1334.12L1010.74 1374.06L1070.53 1408.58L1139.71 1368.64ZM1069.58 1409.13L1009.79 1374.61L940.602 1414.56L1000.39 1449.08L1069.58 1409.13ZM999.442 1449.63L939.651 1415.11L870.448 1455.06L930.237 1489.58L999.442 1449.63ZM929.286 1490.13L869.497 1455.61L800.3 1495.56L860.089 1530.08L929.286 1490.13ZM859.138 1530.63L799.349 1496.11L730.146 1536.07L789.933 1570.58L859.138 1530.63ZM788.982 1571.13L729.195 1536.61L660.003 1576.56L719.79 1611.08L788.982 1571.13ZM659.053 1576.01L728.244 1536.07L668.454 1501.54L599.263 1541.49L659.053 1576.01ZM598.312 1540.94L667.503 1501L607.677 1466.45L538.484 1506.4L598.312 1540.94ZM537.533 1505.85L606.726 1465.91L546.943 1431.39L477.749 1471.34L537.533 1505.85ZM476.798 1470.79L545.992 1430.84L486.209 1396.32L417.014 1436.27L476.798 1470.79ZM416.063 1435.72L485.258 1395.77L425.452 1361.25L356.258 1401.2L416.063 1435.72ZM355.307 1400.65L424.502 1360.7L364.694 1326.17L295.497 1366.12L355.307 1400.65ZM294.546 1365.57L363.743 1325.62L303.958 1291.1L234.76 1331.05L294.546 1365.57ZM233.809 1330.5L303.007 1290.55L243.203 1256.02L174.004 1295.97L233.809 1330.5ZM173.054 1295.42L242.252 1255.47L182.474 1220.96L113.275 1260.91L173.054 1295.42ZM112.324 1260.36L181.523 1220.41L121.691 1185.86L52.4894 1225.82L112.324 1260.36ZM51.5386 1225.27L120.74 1185.32L60.9537 1150.8L-8.24768 1190.75L51.5386 1225.27ZM-9.19843 1190.2L60.0029 1150.25L0.2229 1115.73L-68.9793 1155.69L-9.19843 1190.2ZM-69.9301 1155.14L-0.727844 1115.19L-60.5301 1080.66L-129.733 1120.61L-69.9301 1155.14ZM-130.684 1120.06L-61.4809 1080.11L-121.298 1045.57L-190.502 1085.53L-130.684 1120.06ZM-120.347 1045.02L-60.5301 1079.56L8.66193 1039.61L-51.1557 1005.08L-120.347 1045.02ZM-50.2049 1004.53L9.61273 1039.06L78.8213 999.106L19.0046 964.57L-50.2049 1004.53ZM19.9553 964.021L79.772 998.557L148.964 958.609L89.1464 924.074L19.9553 964.021ZM90.0972 923.525L149.915 958.06L219.117 918.106L159.301 883.57L90.0972 923.525ZM160.251 883.021L220.068 917.557L289.232 877.625L229.415 843.09L160.251 883.021ZM230.366 842.541L290.183 877.076L359.385 837.123L299.568 802.587L230.366 842.541ZM300.519 802.038L360.336 836.574L429.528 796.626L369.711 762.09L300.519 802.038ZM370.661 761.541L430.479 796.077L499.687 756.12L439.87 721.584L370.661 761.541ZM440.821 721.035L500.638 755.571L569.829 715.623L510.012 681.088L440.821 721.035ZM510.963 680.539L570.78 715.074L639.985 675.119L580.168 640.583L510.963 680.539ZM581.119 640.034L640.936 674.57L710.13 634.621L650.313 600.085L581.119 640.034ZM651.264 599.536L711.081 634.072L780.283 594.118L720.466 559.582L651.264 599.536ZM721.417 559.033L781.234 593.569L850.426 553.621L790.609 519.086L721.417 559.033ZM851.377 554.17L782.184 594.118L841.987 628.646L911.18 588.697L851.377 554.17ZM912.131 589.246L842.937 629.195L902.717 663.709L971.912 623.76L912.131 589.246ZM972.863 624.309L903.668 664.258L963.465 698.783L1032.66 658.834L972.863 624.309ZM1033.61 659.382L964.416 699.332L1024.24 733.87L1093.43 693.92L1033.61 659.382ZM1094.38 694.469L1025.19 734.419L1084.97 768.933L1154.16 728.982L1094.38 694.469ZM1155.11 729.531L1085.92 769.482L1145.72 804.01L1214.92 764.059L1155.11 729.531ZM1215.87 764.608L1146.67 804.559L1206.46 839.077L1275.66 799.125L1215.87 764.608ZM1276.61 799.674L1207.41 839.626L1267.2 874.146L1336.4 834.192L1276.61 799.674ZM1337.35 834.741L1268.15 874.695L1327.97 909.235L1397.17 869.282L1337.35 834.741ZM1398.12 869.831L1328.92 909.784L1388.71 944.3L1457.91 904.347L1398.12 869.831ZM1458.86 904.896L1389.66 944.849L1449.44 979.366L1518.64 939.412L1458.86 904.896ZM1519.59 939.961L1450.39 979.915L1510.2 1014.45L1579.4 974.49L1519.59 939.961ZM1580.35 975.039L1511.15 1014.99L1570.96 1049.53L1640.16 1009.57L1580.35 975.039ZM1570.01 1050.07L1510.2 1015.54L1441.01 1055.49L1500.82 1090.02L1570.01 1050.07ZM1499.87 1090.57L1440.06 1056.04L1370.85 1096L1430.66 1130.53L1499.87 1090.57ZM1429.71 1131.08L1369.9 1096.55L1300.71 1136.5L1360.52 1171.02L1429.71 1131.08ZM1359.57 1171.57L1299.76 1137.04L1230.56 1177L1290.36 1211.53L1359.57 1171.57ZM1289.41 1212.08L1229.61 1177.55L1160.41 1217.5L1220.22 1252.03L1289.41 1212.08ZM1219.27 1252.58L1159.46 1218.05L1090.26 1258L1150.06 1292.53L1219.27 1252.58ZM1149.11 1293.08L1089.31 1258.55L1020.12 1298.5L1079.92 1333.03L1149.11 1293.08ZM1078.97 1333.57L1019.17 1299.05L949.997 1338.99L1009.79 1373.51L1078.97 1333.57ZM1008.84 1374.06L949.046 1339.54L879.856 1379.49L939.651 1414.01L1008.84 1374.06ZM938.701 1414.56L878.905 1380.04L809.704 1419.99L869.497 1454.51L938.701 1414.56ZM868.546 1455.06L808.753 1420.54L739.557 1460.49L799.349 1495.01L868.546 1455.06ZM798.399 1495.56L738.606 1461.04L669.405 1501L729.195 1535.52L798.399 1495.56ZM668.454 1500.45L737.655 1460.49L677.83 1425.95L608.627 1465.91L668.454 1500.45ZM607.677 1465.36L676.879 1425.4L617.095 1390.89L547.893 1430.84L607.677 1465.36ZM546.943 1430.29L616.144 1390.34L556.36 1355.82L487.16 1395.77L546.943 1430.29ZM486.209 1395.23L555.409 1355.27L495.601 1320.74L426.403 1360.7L486.209 1395.23ZM425.452 1360.15L494.65 1320.19L434.843 1285.67L365.645 1325.62L425.452 1360.15ZM364.694 1325.07L433.892 1285.12L374.106 1250.6L304.908 1290.55L364.694 1325.07ZM303.958 1290L373.155 1250.05L313.35 1215.52L244.154 1255.47L303.958 1290ZM243.203 1254.92L312.4 1214.97L252.621 1180.46L183.425 1220.41L243.203 1254.92ZM182.474 1219.86L251.67 1179.91L191.837 1145.37L122.641 1185.32L182.474 1219.86ZM121.691 1184.77L190.886 1144.82L131.098 1110.3L61.9044 1150.25L121.691 1184.77ZM60.9537 1149.7L130.148 1109.75L70.3666 1075.24L1.17365 1115.19L60.9537 1149.7ZM0.2229 1114.64L69.4159 1074.69L9.61267 1040.16L-59.5794 1080.11L0.2229 1114.64ZM10.5635 1039.61L70.3666 1074.14L139.574 1034.18L79.772 999.655L10.5635 1039.61ZM80.7228 999.106L140.525 1033.63L209.718 993.685L149.915 959.158L80.7228 999.106ZM150.866 958.609L210.669 993.136L279.87 953.182L220.068 918.655L150.866 958.609ZM221.019 918.106L280.821 952.633L349.986 912.701L290.183 878.174L221.019 918.106ZM291.134 877.625L350.937 912.152L420.138 872.199L360.336 837.672L291.134 877.625ZM361.286 837.123L421.089 871.65L490.282 831.702L430.479 797.175L361.286 837.123ZM431.43 796.626L491.233 831.153L560.44 791.196L500.638 756.669L431.43 796.626ZM501.588 756.12L561.391 790.647L630.583 750.699L570.78 716.172L501.588 756.12ZM571.731 715.623L631.534 750.15L700.738 710.195L640.936 675.668L571.731 715.623ZM641.886 675.119L701.689 709.647L770.884 669.697L711.081 635.17L641.886 675.119ZM712.032 634.621L771.835 669.148L841.036 629.195L781.234 594.667L712.032 634.621ZM841.987 629.744L772.786 669.697L832.567 704.211L901.767 664.258L841.987 629.744ZM902.717 664.807L833.517 704.76L893.315 739.283L962.515 699.332L902.717 664.807ZM963.465 699.881L894.265 739.832L954.089 774.371L1023.29 734.419L963.465 699.881ZM1024.24 734.968L955.04 774.92L1014.82 809.433L1084.02 769.482L1024.24 734.968ZM1084.97 770.031L1015.77 809.982L1075.57 844.51L1144.77 804.559L1084.97 770.031ZM1145.72 805.108L1076.52 845.058L1136.31 879.576L1205.51 839.626L1145.72 805.108ZM1206.46 840.175L1137.26 880.125L1197.05 914.645L1266.25 874.695L1206.46 840.175ZM1267.2 875.244L1198 915.194L1257.83 949.733L1327.02 909.784L1267.2 875.244ZM1327.97 910.333L1258.78 950.282L1318.56 984.798L1387.76 944.849L1327.97 910.333ZM1388.71 945.398L1319.51 985.347L1379.3 1019.86L1448.49 979.915L1388.71 945.398ZM1449.44 980.464L1380.25 1020.41L1440.06 1054.94L1509.25 1014.99L1449.44 980.464ZM1439.11 1055.49L1379.3 1020.96L1310.09 1060.92L1369.9 1095.45L1439.11 1055.49ZM1368.95 1096L1309.14 1061.46L1239.95 1101.41L1299.76 1135.95L1368.95 1096ZM1298.81 1136.5L1239 1101.96L1169.8 1141.92L1229.61 1176.45L1298.81 1136.5ZM1228.66 1177L1168.84 1142.47L1099.65 1182.42L1159.46 1216.95L1228.66 1177ZM1158.51 1217.5L1098.7 1182.97L1029.49 1222.92L1089.31 1257.46L1158.51 1217.5ZM1088.36 1258L1028.54 1223.47L959.351 1263.42L1019.17 1297.95L1088.36 1258ZM1018.22 1298.5L958.4 1263.97L889.226 1303.9L949.046 1338.44L1018.22 1298.5ZM948.095 1338.99L888.275 1304.45L819.082 1344.4L878.905 1378.94L948.095 1338.99ZM877.954 1379.49L818.132 1344.95L748.93 1384.9L808.753 1419.44L877.954 1379.49ZM807.802 1419.99L747.979 1385.45L678.78 1425.4L738.606 1459.94L807.802 1419.99ZM677.83 1424.85L747.028 1384.9L687.245 1350.39L618.045 1390.34L677.83 1424.85ZM617.095 1389.79L686.294 1349.84L626.511 1315.32L557.311 1355.27L617.095 1389.79ZM556.36 1354.72L625.561 1314.77L565.751 1280.24L496.551 1320.19L556.36 1354.72ZM495.601 1319.65L564.801 1279.69L504.996 1245.16L435.794 1285.12L495.601 1319.65ZM434.843 1284.57L504.045 1244.61L444.26 1210.1L375.056 1250.05L434.843 1284.57ZM374.106 1249.5L443.309 1209.55L383.505 1175.02L314.301 1214.97L374.106 1249.5ZM313.35 1214.42L382.554 1174.47L322.776 1139.96L253.571 1179.91L313.35 1214.42ZM252.621 1179.36L321.826 1139.41L261.995 1104.86L192.788 1144.82L252.621 1179.36ZM191.837 1144.27L261.044 1104.31L201.256 1069.79L132.049 1109.75L191.837 1144.27ZM131.098 1109.2L200.305 1069.25L140.525 1034.73L71.3174 1074.69L131.098 1109.2ZM141.476 1034.18L201.256 1068.7L270.45 1028.75L210.669 994.234L141.476 1034.18ZM211.619 993.685L271.4 1028.2L340.601 988.246L280.821 953.731L211.619 993.685ZM281.772 953.182L341.552 987.697L410.718 947.764L350.937 913.25L281.772 953.182ZM351.888 912.701L411.669 947.215L480.869 907.263L421.089 872.748L351.888 912.701ZM422.039 872.199L481.819 906.714L551.014 866.765L491.233 832.25L422.039 872.199ZM492.184 831.702L551.965 866.216L621.171 826.26L561.391 791.745L492.184 831.702ZM562.341 791.196L622.121 825.711L691.315 785.762L631.534 751.248L562.341 791.196ZM632.485 750.699L692.266 785.213L761.469 745.259L701.689 710.744L632.485 750.699ZM702.639 710.196L762.419 744.71L831.616 704.76L771.835 670.245L702.639 710.196ZM832.567 705.309L763.37 745.259L823.165 779.783L892.364 739.832L832.567 705.309ZM893.315 740.381L824.116 780.332L883.94 814.871L953.138 774.92L893.315 740.381ZM954.089 775.469L884.891 815.42L944.669 849.934L1013.87 809.982L954.089 775.469ZM1014.82 810.531L945.619 850.483L1005.42 885.011L1074.62 845.058L1014.82 810.531ZM1075.57 845.607L1006.37 885.56L1066.16 920.078L1135.36 880.125L1075.57 845.607ZM1136.31 880.674L1067.11 920.627L1126.9 955.148L1196.1 915.194L1136.31 880.674ZM1197.05 915.743L1127.85 955.697L1187.67 990.236L1256.88 950.282L1197.05 915.743ZM1257.83 950.831L1188.63 990.785L1248.41 1025.3L1317.61 985.347L1257.83 950.831ZM1318.56 985.896L1249.36 1025.85L1309.14 1060.37L1378.35 1020.41L1318.56 985.896ZM1308.19 1060.92L1248.41 1026.4L1179.21 1066.35L1239 1100.87L1308.19 1060.92ZM1238.05 1101.41L1178.26 1066.9L1109.06 1106.85L1168.84 1141.37L1238.05 1101.41ZM1167.89 1141.92L1108.11 1107.4L1038.91 1147.35L1098.7 1181.87L1167.89 1141.92ZM1097.75 1182.42L1037.96 1147.9L968.759 1187.85L1028.54 1222.37L1097.75 1182.42ZM1027.59 1222.92L967.808 1188.4L898.616 1228.35L958.4 1262.87L1027.59 1222.92ZM957.449 1263.42L897.665 1228.9L828.492 1268.84L888.275 1303.35L957.449 1263.42ZM887.324 1303.9L827.541 1269.39L758.347 1309.33L818.132 1343.85L887.324 1303.9ZM817.181 1344.4L757.397 1309.88L688.196 1349.84L747.979 1384.35L817.181 1344.4ZM687.245 1349.29L756.446 1309.33L696.662 1274.82L627.462 1314.77L687.245 1349.29ZM626.511 1314.22L695.712 1274.27L635.9 1239.74L566.702 1279.69L626.511 1314.22ZM565.751 1279.14L634.949 1239.19L575.145 1204.66L505.947 1244.61L565.751 1279.14ZM504.996 1244.06L574.194 1204.11L514.408 1169.6L445.21 1209.55L504.996 1244.06ZM444.26 1209L513.457 1169.05L453.652 1134.52L384.456 1174.47L444.26 1209ZM383.505 1173.92L452.702 1133.97L392.923 1099.46L323.727 1139.41L383.505 1173.92ZM322.776 1138.86L391.972 1098.91L332.141 1064.37L262.945 1104.31L322.776 1138.86ZM261.995 1103.77L331.19 1063.82L271.4 1029.3L202.207 1069.25L261.995 1103.77ZM272.351 1028.75L332.141 1063.27L401.342 1023.32L341.552 988.795L272.351 1028.75ZM342.503 988.246L402.293 1022.77L471.461 982.833L411.669 948.313L342.503 988.246ZM412.62 947.764L472.411 982.285L541.611 942.333L481.819 907.812L412.62 947.764ZM482.77 907.263L542.562 941.784L611.758 901.835L551.965 867.314L482.77 907.263ZM552.915 866.765L612.709 901.286L681.915 861.331L622.121 826.809L552.915 866.765ZM623.072 826.26L682.866 860.782L752.061 820.833L692.266 786.311L623.072 826.26ZM693.217 785.762L753.012 820.285L822.215 780.332L762.419 745.808L693.217 785.762ZM823.165 780.88L753.963 820.833L813.788 855.373L882.989 815.42L823.165 780.88ZM883.94 815.969L814.739 855.922L874.518 890.435L943.718 850.483L883.94 815.969ZM944.669 851.032L875.469 890.984L935.273 925.512L1004.47 885.56L944.669 851.032ZM1005.42 886.109L936.224 926.061L996.01 960.578L1065.21 920.627L1005.42 886.109ZM1066.16 921.176L996.961 961.127L1056.76 995.649L1125.95 955.697L1066.16 921.176ZM1126.9 956.246L1057.71 996.198L1117.53 1030.74L1186.72 990.785L1126.9 956.246ZM1187.67 991.334L1118.48 1031.28L1178.26 1065.8L1247.46 1025.85L1187.67 991.334ZM1177.31 1066.35L1117.53 1031.83L1048.33 1071.79L1108.11 1106.3L1177.31 1066.35ZM1107.16 1106.85L1047.38 1072.33L978.177 1112.29L1037.96 1146.8L1107.16 1106.85ZM1037.01 1147.35L977.227 1112.84L908.026 1152.79L967.808 1187.31L1037.01 1147.35ZM966.858 1187.85L907.075 1153.34L837.881 1193.29L897.665 1227.8L966.858 1187.85ZM896.714 1228.35L836.931 1193.84L767.758 1233.77L827.541 1268.29L896.714 1228.35ZM826.59 1268.84L766.807 1234.32L697.613 1274.27L757.397 1308.79L826.59 1268.84ZM696.662 1273.72L765.857 1233.77L706.044 1199.24L636.85 1239.19L696.662 1273.72ZM635.9 1238.64L705.094 1198.69L645.292 1164.16L576.096 1204.11L635.9 1238.64ZM575.145 1203.56L644.341 1163.61L584.556 1129.1L515.359 1169.05L575.145 1203.56ZM514.408 1168.5L583.605 1128.55L523.801 1094.02L454.603 1133.97L514.408 1168.5ZM453.652 1133.42L522.851 1093.47L463.072 1058.96L393.873 1098.91L453.652 1133.42ZM392.923 1098.36L462.122 1058.41L402.293 1023.86L333.092 1063.82L392.923 1098.36ZM403.243 1023.32L463.072 1057.86L532.24 1017.92L472.411 983.382L403.243 1023.32ZM473.362 982.833L533.191 1017.38L602.389 977.424L542.562 942.882L473.362 982.833ZM543.513 942.333L603.34 976.875L672.536 936.925L612.709 902.384L543.513 942.333ZM613.66 901.835L673.487 936.376L742.691 896.421L682.866 861.88L613.66 901.835ZM683.816 861.331L743.642 895.872L812.837 855.922L753.012 821.382L683.816 861.331ZM813.788 856.471L744.593 896.421L804.371 930.935L873.567 890.984L813.788 856.471ZM874.518 891.533L805.321 931.483L865.125 966.012L934.323 926.061L874.518 891.533ZM935.273 926.61L866.076 966.561L925.862 1001.08L995.06 961.127L935.273 926.61ZM996.01 961.676L926.812 1001.63L986.607 1036.15L1055.8 996.198L996.01 961.676ZM1056.76 996.747L987.558 1036.7L1047.38 1071.24L1116.58 1031.28L1056.76 996.747ZM1046.43 1071.79L986.607 1037.25L917.408 1077.2L977.227 1111.74L1046.43 1071.79ZM976.276 1112.29L916.458 1077.75L847.259 1117.7L907.075 1152.24L976.276 1112.29ZM906.124 1152.79L846.309 1118.25L777.116 1158.2L836.931 1192.74L906.124 1152.79ZM835.98 1193.29L776.165 1158.75L706.995 1198.69L766.808 1233.22L835.98 1193.29ZM706.044 1198.14L775.214 1158.2L715.413 1123.68L646.243 1163.61L706.044 1198.14ZM645.292 1163.06L714.463 1123.13L654.676 1088.61L585.507 1128.55L645.292 1163.06ZM584.556 1128L653.725 1088.06L593.921 1053.54L524.752 1093.47L584.556 1128ZM523.801 1092.92L592.97 1052.99L533.191 1018.47L464.023 1058.41L523.801 1092.92ZM534.142 1017.92L593.921 1052.44L663.118 1012.49L603.34 977.973L534.142 1017.92ZM604.291 977.424L664.069 1011.94L733.266 971.987L673.487 937.474L604.291 977.424ZM674.438 936.925L734.217 971.438L803.42 931.483L743.642 896.97L674.438 936.925ZM804.371 932.032L735.167 971.987L794.972 1006.51L864.174 966.561L804.371 932.032ZM865.125 967.11L795.923 1007.06L855.709 1041.58L924.911 1001.63L865.125 967.11ZM925.862 1002.18L856.66 1042.13L916.458 1076.65L985.657 1036.7L925.862 1002.18ZM915.507 1077.2L855.709 1042.68L786.51 1082.63L846.309 1117.16L915.507 1077.2ZM845.358 1117.7L785.56 1083.18L716.364 1123.13L776.165 1157.65L845.358 1117.7ZM715.413 1122.58L784.609 1082.63L724.823 1048.11L655.627 1088.06L715.413 1122.58ZM654.676 1087.51L723.873 1047.56L664.069 1013.04L594.872 1052.99L654.676 1087.51ZM665.019 1012.49L724.823 1047.01L794.021 1007.06L734.217 972.536L665.019 1012.49ZM794.972 1007.61L725.774 1047.56L785.56 1082.08L854.759 1042.13L794.972 1007.61Z" fill="url(#paint2_radial_1155_17632)"></path>
  </g>
  <defs>
    <linearGradient id="paint0_linear_1155_17632" x1="1326.5" y1="289" x2="-102.934" y2="823.271" gradientUnits="userSpaceOnUse">
      <stop stop-color="#121118"></stop>
      <stop offset="1" stop-color="#0D52FF"></stop>
    </linearGradient>
    <linearGradient id="paint1_linear_1155_17632" x1="1422" y1="-0.245806" x2="1419.64" y2="1164.75" gradientUnits="userSpaceOnUse">
      <stop></stop>
      <stop offset="1" stop-opacity="0"></stop>
    </linearGradient>
    <radialGradient id="paint2_radial_1155_17632" cx="0" cy="0" r="1" gradientUnits="userSpaceOnUse" gradientTransform="translate(1114.76 885.734) rotate(-180) scale(669.253 317.634)">
      <stop stop-color="#9BFFF8" stop-opacity="0.3"></stop>
      <stop offset="1" stop-color="white" stop-opacity="0"></stop>
    </radialGradient>
    <clipPath id="clip0_1155_17632">
      <rect width="1680" height="1165" fill="white"></rect>
    </clipPath>
  </defs>
</svg>
